<svg width="512" height="512" viewBox="0 0 512 512" xmlns="http://www.w3.org/2000/svg">
  <rect width="512" height="512" fill="#0a0a0a"/>
  <g fill="#ff6b35">
    <path d="M256 100 Q200 50 150 100 Q100 150 150 200 Q200 250 256 200 Q312 250 362 200 Q412 150 362 100 Q312 50 256 100 Z"/>
    <circle cx="256" cy="150" r="40" fill="#ff8e53"/>
    <text x="256" y="165" font-family="Arial" font-size="32" font-weight="bold" fill="#0a0a0a" text-anchor="middle">AiVIS</text>
    <text x="256" y="195" font-family="Arial" font-size="48" font-weight="bold" fill="#ff6b35" text-anchor="middle">🦞</text>
    <circle cx="200" cy="300" r="30" fill="#ff4757"/>
    <circle cx="312" cy="300" r="30" fill="#ff4757"/>
    <path d="M256 330 L200 400 L256 370 L312 400 Z" fill="#2ed573"/>
  </g>
  <g stroke="#00d2ff" stroke-width="4" fill="none">
    <path d="M150 250 Q100 300 150 350"/>
    <path d="M362 250 Q412 300 362 350"/>
  </g>
</svg>